<?xml version="1.0" encoding="utf-8"?>
<!DOCTYPE svg PUBLIC "-//W3C//DTD SVG 1.1//EN" "http://www.w3.org/Graphics/SVG/1.1/DTD/svg11.dtd">
<svg version="1.1" xmlns="http://www.w3.org/2000/svg" xmlns:xlink="http://www.w3.org/1999/xlink" x="0px" y="0px" width="18px" height="15px" viewBox="0 0 17.996 15" enable-background="new 0 0 17.996 15" xml:space="preserve"><path d="M16.163,3.645c0,0.167,0,0.312,0,0.479c0,4.874-3.708,10.497-10.498,10.497c-2.083,0-4.041-0.457-5.665-1.5 c0.292,0.043,0.583,0.062,0.875,0.062c1.729,0,3.332-0.75,4.582-1.748c-1.604-0.021-2.979-1.105-3.437-2.562 C2.25,8.915,2.479,8.936,2.708,8.936c0.333,0,0.667-0.042,0.979-0.125C2,8.477,0.729,6.978,0.729,5.187c0-0.021,0-0.021,0-0.042 c0.5,0.271,1.062,0.438,1.666,0.458c-1-0.667-1.645-1.792-1.645-3.062c0-0.687,0.188-1.25,0.5-1.791 C3.083,2.979,5.79,4.374,8.852,4.541C8.789,4.27,8.769,3.979,8.769,3.687C8.769,1.646,10.414,0,12.455,0 c1.062,0,2.021,0.458,2.708,1.167C15.996,1,16.787,0.688,17.496,0.271c-0.271,0.854-0.854,1.583-1.625,2.041 c0.75-0.083,1.458-0.292,2.125-0.583C17.496,2.479,16.871,3.125,16.163,3.645z"/></svg>